<svg width="536" height="72" viewBox="0 0 536 72" fill="none" xmlns="http://www.w3.org/2000/svg">
<path d="M0.284091 71V1.18182H17.1591V29.2045H44.6705V1.18182H61.5114V71H44.6705V42.9432H17.1591V71H0.284091ZM137.994 36.0909C137.994 43.7727 136.517 50.2841 133.562 55.625C130.608 60.9659 126.608 65.0227 121.562 67.7955C116.54 70.5682 110.903 71.9545 104.653 71.9545C98.3807 71.9545 92.733 70.5568 87.7102 67.7614C82.6875 64.9659 78.6989 60.9091 75.7443 55.5909C72.8125 50.25 71.3466 43.75 71.3466 36.0909C71.3466 28.4091 72.8125 21.8977 75.7443 16.5568C78.6989 11.2159 82.6875 7.15909 87.7102 4.38636C92.733 1.61363 98.3807 0.22727 104.653 0.22727C110.903 0.22727 116.54 1.61363 121.562 4.38636C126.608 7.15909 130.608 11.2159 133.562 16.5568C136.517 21.8977 137.994 28.4091 137.994 36.0909ZM120.744 36.0909C120.744 31.5455 120.097 27.7045 118.801 24.5682C117.528 21.4318 115.688 19.0568 113.278 17.4432C110.892 15.8295 108.017 15.0227 104.653 15.0227C101.313 15.0227 98.4375 15.8295 96.0284 17.4432C93.6193 19.0568 91.767 21.4318 90.4716 24.5682C89.1989 27.7045 88.5625 31.5455 88.5625 36.0909C88.5625 40.6364 89.1989 44.4773 90.4716 47.6136C91.767 50.75 93.6193 53.125 96.0284 54.7386C98.4375 56.3523 101.313 57.1591 104.653 57.1591C108.017 57.1591 110.892 56.3523 113.278 54.7386C115.688 53.125 117.528 50.75 118.801 47.6136C120.097 44.4773 120.744 40.6364 120.744 36.0909ZM142.375 14.8864V1.18182H201.386V14.8864H180.216V71H163.58V14.8864H142.375ZM209.628 71V1.18182H258.31V14.8864H226.503V29.2045H255.821V42.9432H226.503V57.2955H258.31V71H209.628ZM268.878 71V1.18182H285.753V57.2955H314.798V71H268.878ZM420.472 71V1.18182H469.153V14.8864H437.347V29.2045H466.665V42.9432H437.347V57.2955H469.153V71H420.472ZM479.722 71V1.18182H508.835C514.063 1.18182 518.438 1.92045 521.96 3.39772C525.506 4.875 528.165 6.94318 529.938 9.60227C531.733 12.2614 532.631 15.3409 532.631 18.8409C532.631 21.5 532.074 23.875 530.96 25.9659C529.847 28.0341 528.313 29.75 526.358 31.1136C524.403 32.4773 522.142 33.4318 519.574 33.9773V34.6591C522.392 34.7955 524.994 35.5568 527.381 36.9432C529.79 38.3295 531.722 40.2614 533.176 42.7386C534.631 45.1932 535.358 48.1023 535.358 51.4659C535.358 55.2159 534.403 58.5682 532.494 61.5227C530.585 64.4545 527.824 66.7727 524.21 68.4773C520.597 70.1591 516.21 71 511.051 71H479.722ZM496.597 57.3977H507.028C510.688 57.3977 513.381 56.7045 515.108 55.3182C516.858 53.9318 517.733 52 517.733 49.5227C517.733 47.7273 517.313 46.1818 516.472 44.8864C515.631 43.5682 514.438 42.5568 512.892 41.8523C511.347 41.125 509.494 40.7614 507.335 40.7614H496.597V57.3977ZM496.597 29.8864H505.938C507.778 29.8864 509.415 29.5795 510.847 28.9659C512.278 28.3523 513.392 27.4659 514.188 26.3068C515.006 25.1477 515.415 23.75 515.415 22.1136C515.415 19.7727 514.585 17.9318 512.926 16.5909C511.267 15.25 509.028 14.5795 506.21 14.5795H496.597V29.8864Z" fill="url(#paint0_linear_31_271)"/>
<path d="M335.023 71L314.705 1.18182H333.352L343.886 46.9318H344.466L356.5 1.18182H371.705L383.739 47.0341H384.318L394.886 1.18182H413.5L393.216 71H376.955L364.375 28.6591H363.83L351.25 71H335.023Z" fill="url(#paint1_linear_31_271)"/>
<defs>
<linearGradient id="paint0_linear_31_271" x1="284.617" y1="-75.5949" x2="465.13" y2="161.831" gradientUnits="userSpaceOnUse">
<stop stop-color="#63ABFF"/>
<stop offset="1" stop-color="#120039"/>
</linearGradient>
<linearGradient id="paint1_linear_31_271" x1="284.617" y1="-75.5949" x2="465.13" y2="161.831" gradientUnits="userSpaceOnUse">
<stop stop-color="white"/>
<stop offset="1" stop-color="#120039"/>
</linearGradient>
</defs>
</svg>
